PathFileType	4	(X/Y/Z)	c:/Users/goper/Files/vsCode/490R/osim_files/C17/C17_Slow_01.trc
DataRate	CameraRate	NumFrames	NumMarkers	Units                	OrigDataRate	OrigDataStartFrame	OrigNumFrames
250.00	250.00	10	36	mm	250.0	988	2632
                Frame#	Time	LPSIS			LASIS			LTH1			LTH2			LTH3			LTH4			LLFE			LMFE			LSH1			LSH2			LSH3			LSH4			LLMAL			LMMAL			LCAL			LMTP5			LTOE			LMTP1			RPSIS			RASIS			RTH1			RTH2			RTH3			RTH4			RLFE			RMFE			RSH1			RSH2			RSH3			RSH4			RLMAL			RMMAL			RCAL			RMTP1			RTOE			RMTP5		
		X1	Y1	Z1	X2	Y2	Z2	X3	Y3	Z3	X4	Y4	Z4	X5	Y5	Z5	X6	Y6	Z6	X7	Y7	Z7	X8	Y8	Z8	X9	Y9	Z9	X10	Y10	Z10	X11	Y11	Z11	X12	Y12	Z12	X13	Y13	Z13	X14	Y14	Z14	X15	Y15	Z15	X16	Y16	Z16	X17	Y17	Z17	X18	Y18	Z18	X19	Y19	Z19	X20	Y20	Z20	X21	Y21	Z21	X22	Y22	Z22	X23	Y23	Z23	X24	Y24	Z24	X25	Y25	Z25	X26	Y26	Z26	X27	Y27	Z27	X28	Y28	Z28	X29	Y29	Z29	X30	Y30	Z30	X31	Y31	Z31	X32	Y32	Z32	X33	Y33	Z33	X34	Y34	Z34	X35	Y35	Z35	X36	Y36	Z36

988	3.94800	1710.65747	1090.63379	256.63129	0.00000	0.00000	0.00000	1616.61304	712.91211	381.72495	1606.84888	669.52869	373.53290	1557.99744	723.13879	387.82214	1551.83191	674.28650	376.27289	1604.54346	502.96439	336.50397	1600.03247	510.10349	214.01866	1679.96436	273.94382	318.71469	1680.33350	231.83801	312.26410	1621.44409	271.37082	324.04047	0.00000	0.00000	0.00000	1668.04358	89.95322	282.55661	1660.71155	106.53164	196.99126	1746.96301	55.34341	237.16023	1551.93408	37.24821	300.65283	1496.60144	56.30842	231.66232	0.00000	0.00000	0.00000	1702.37292	1084.42407	183.50058	1522.68689	1055.39209	94.07027	0.00000	0.00000	0.00000	1474.76843	718.14203	37.78345	1438.35095	779.05676	46.09340	0.00000	0.00000	0.00000	1403.77759	514.56421	54.52708	1417.70715	527.59985	180.71782	1539.05029	350.92917	43.86715	1549.23535	308.80707	55.54366	0.00000	0.00000	0.00000	0.00000	0.00000	0.00000	1602.47644	142.88115	84.01940	1559.86475	146.45558	171.23775	1674.09717	123.16716	137.57228	1449.87842	50.87508	158.48410	0.00000	0.00000	0.00000	1497.52808	54.98150	49.20096
989	3.95200	1705.88208	1090.37964	256.69943	0.00000	0.00000	0.00000	1614.13501	713.10474	381.81464	1604.70483	669.65497	373.57053	1555.59656	723.01093	387.92447	1549.71350	674.17328	376.30835	1603.78369	503.11835	336.60678	1599.12415	510.25995	214.14742	1679.62573	274.09482	318.66290	1680.06653	231.96449	312.21326	1621.03528	271.34833	324.09473	0.00000	0.00000	0.00000	1668.92151	91.22296	282.75830	1658.69385	103.86625	195.34396	1746.88684	55.54096	237.14182	1551.95801	37.28786	300.65750	1495.59729	56.17945	231.76805	0.00000	0.00000	0.00000	1697.58374	1084.18921	183.57100	1517.85193	1055.24316	94.46597	0.00000	0.00000	0.00000	0.00000	0.00000	0.00000	1433.07605	779.25897	46.54327	1422.90747	731.63300	42.24983	1397.48254	516.81293	53.89685	0.00000	0.00000	0.00000	1527.80554	348.41574	44.47725	1535.50427	304.52722	55.17951	0.00000	0.00000	0.00000	0.00000	0.00000	0.00000	1586.32202	138.98651	84.68826	0.00000	0.00000	0.00000	1657.60193	116.59264	136.95723	0.00000	0.00000	0.00000	1545.17590	144.06294	172.22258	0.00000	0.00000	0.00000
990	3.95600	1701.10583	1090.13586	256.73969	0.00000	0.00000	0.00000	1611.73230	713.31329	381.91653	1602.55920	669.86731	373.64075	1553.28467	722.61084	388.22333	1547.51404	674.03406	376.36432	1603.01855	503.29639	336.70654	1598.19763	510.43384	214.22957	1679.32666	274.33533	318.66385	1679.87915	232.24559	312.22070	1620.77368	271.42603	324.21317	1626.49341	223.44991	312.00183	1669.34045	91.99695	282.64697	1658.58350	103.91370	195.28622	1746.78223	55.63872	237.08012	1551.69873	37.18145	300.51114	1495.47913	55.98444	231.69879	0.00000	0.00000	0.00000	1692.79077	1083.94897	183.58069	1513.01111	1054.99426	94.83033	0.00000	0.00000	0.00000	0.00000	0.00000	0.00000	1427.89319	779.77081	46.02107	1416.76367	731.73828	42.14624	1390.21240	517.35706	54.61843	0.00000	0.00000	0.00000	1516.48511	346.46976	45.48876	1523.27625	301.91177	55.83827	0.00000	0.00000	0.00000	0.00000	0.00000	0.00000	1570.17969	135.20288	85.35406	1529.65503	141.53488	172.98917	1641.35193	111.45676	137.32547	0.00000	0.00000	0.00000	0.00000	0.00000	0.00000	1461.09009	51.45098	52.13957
991	3.96000	1696.32446	1089.83972	256.79224	0.00000	0.00000	0.00000	1609.25232	713.43817	381.99503	1600.32922	669.94055	373.64664	1550.69836	722.72418	388.11185	1545.33643	673.80743	376.39273	1602.10095	503.41064	336.80954	1597.22021	510.54330	214.30975	1679.00110	274.55786	318.62753	1679.58386	232.45535	312.14130	1620.51257	271.49414	324.29272	1626.20544	223.58527	312.10696	1669.28418	92.11417	282.53918	1658.48669	103.99654	195.23489	1746.70264	55.73289	237.03230	1551.95312	37.29993	300.64871	1495.46301	55.93455	231.71301	0.00000	0.00000	0.00000	1688.00146	1083.65417	183.62650	1508.04932	1054.62988	95.26218	1473.30164	762.74591	29.55452	0.00000	0.00000	0.00000	1421.51233	778.84991	44.87492	1411.69629	732.04889	42.72927	0.00000	0.00000	0.00000	1398.12366	527.62695	182.51233	1505.15112	343.36853	45.59691	1510.98682	299.28406	56.46848	0.00000	0.00000	0.00000	0.00000	0.00000	0.00000	1553.81299	131.55582	86.05135	0.00000	0.00000	0.00000	1625.00793	107.65712	138.76320	1398.48499	46.22255	163.56549	1380.56567	70.82651	117.30553	1442.91797	50.01850	53.64440
992	3.96400	1691.54443	1089.47949	256.83594	1500.71716	1037.10791	364.83932	1608.18164	713.75592	382.50668	1598.26367	670.12097	373.72775	1548.07349	722.42780	388.14453	1543.24329	673.71075	376.37759	1601.20679	503.52213	336.85181	1596.19763	510.67859	214.39351	1678.72974	274.82684	318.61734	1679.26270	232.65617	312.08536	1620.10498	271.50125	324.38492	1625.97302	223.72258	312.21744	1669.25220	92.23985	282.42102	1658.37988	104.06924	195.19054	1746.58594	55.77671	236.96240	1551.91284	37.27193	300.60544	1495.36597	55.75941	231.67493	0.00000	0.00000	0.00000	1683.17346	1083.29565	183.66664	1503.16516	1054.20850	95.61158	0.00000	0.00000	0.00000	0.00000	0.00000	0.00000	0.00000	0.00000	0.00000	1405.24585	732.18146	42.82856	1375.87915	518.09015	56.06534	0.00000	0.00000	0.00000	1493.91650	340.93182	46.19710	1498.76648	296.73370	57.13314	0.00000	0.00000	0.00000	0.00000	0.00000	0.00000	1537.57727	128.09822	86.83214	0.00000	0.00000	0.00000	1608.40552	102.78178	139.22649	1381.73291	45.75183	164.65141	1363.45996	71.16914	119.11592	1424.88745	48.86915	55.23691
993	3.96800	1686.75513	1089.14893	256.89978	1495.94690	1036.63611	365.13495	1605.59119	714.00623	382.56256	1596.00208	670.22198	373.73090	1545.55225	722.26770	388.12021	1540.83191	673.38605	376.32281	1600.18445	503.59854	336.89258	1595.15234	510.75562	214.45029	1678.37073	275.04865	318.57928	1678.97705	232.82675	312.06125	1619.69446	271.55331	324.47583	1625.67017	223.82230	312.21396	1669.19238	92.36738	282.30566	1658.27026	104.15554	195.17464	1746.49646	55.88780	236.89430	1551.92725	37.25475	300.61075	1495.32458	55.67700	231.66762	0.00000	0.00000	0.00000	1678.36682	1082.95447	183.68913	1498.21094	1053.75012	96.06216	0.00000	0.00000	0.00000	0.00000	0.00000	0.00000	1410.08850	778.52808	46.44915	1399.76575	732.29962	43.53946	1367.90857	516.99768	57.94726	1385.02966	527.22217	183.65497	1482.63452	338.60886	46.88571	1486.48523	294.22256	57.84339	0.00000	0.00000	0.00000	0.00000	0.00000	0.00000	1521.69812	124.78493	87.52317	0.00000	0.00000	0.00000	1591.84717	98.20841	139.83847	1361.32605	46.34878	164.98859	1346.16724	72.02999	120.21014	1406.24292	46.82583	57.31459
994	3.97200	1681.95911	1088.73535	256.97260	0.00000	0.00000	0.00000	1602.89661	714.10645	382.57968	1593.78235	670.29675	373.77359	1543.11450	722.07379	388.27136	1538.59167	673.12146	376.31821	1599.18066	503.65079	336.94305	1594.11365	510.84113	214.50461	1678.04846	275.38501	318.56595	1678.69397	233.10773	312.00464	1619.45203	271.74139	324.57309	1625.34839	223.97160	312.19104	1667.19983	90.48441	281.55862	1658.17749	104.27080	195.11961	1746.52271	56.14177	236.85802	1551.95447	37.27044	300.60437	1496.29517	55.72320	232.16812	0.00000	0.00000	0.00000	1673.54956	1082.50732	183.75459	1493.38867	1053.39844	96.30454	1455.54004	762.65875	30.21579	0.00000	0.00000	0.00000	0.00000	0.00000	0.00000	1393.17859	732.43268	43.39789	1360.99670	517.23712	58.65187	0.00000	0.00000	0.00000	1471.37341	336.22440	47.54831	1474.19177	291.81296	58.58851	0.00000	0.00000	0.00000	0.00000	0.00000	0.00000	1504.10413	120.32267	89.21358	0.00000	0.00000	0.00000	1575.12256	92.95148	139.41576	0.00000	0.00000	0.00000	1328.63257	72.21358	122.39216	1387.94067	46.11367	58.80209
995	3.97600	1677.12744	1088.24731	257.01611	0.00000	0.00000	0.00000	1600.25769	714.22467	382.58801	1591.60156	670.42944	373.76627	1540.55396	721.78796	388.26703	1536.35474	672.93036	376.24091	1598.11670	503.74298	336.95734	1592.97241	510.92068	214.57655	1677.57568	275.56372	318.51331	1678.44470	233.45923	311.97299	1619.15991	271.93671	324.62173	1625.11804	224.10237	312.21976	1667.16980	90.62700	281.42001	1658.04407	104.36969	195.04243	1746.52258	56.35331	236.80663	1551.96252	37.26246	300.59076	1496.30420	55.70004	232.18600	0.00000	0.00000	0.00000	1668.73486	1082.11487	183.79022	1488.48853	1052.89331	96.58885	0.00000	0.00000	0.00000	0.00000	0.00000	0.00000	1398.55347	778.61121	47.61282	1388.15662	732.37958	44.37299	1355.04297	518.86517	58.30942	0.00000	0.00000	0.00000	1459.96875	333.84329	48.26819	1461.90271	289.41891	59.31163	0.00000	0.00000	0.00000	0.00000	0.00000	0.00000	1487.75049	117.40405	90.21648	1451.15381	130.33029	177.61044	0.00000	0.00000	0.00000	0.00000	0.00000	0.00000	1311.35718	73.01198	123.88636	1370.74902	46.24309	59.76587
996	3.98000	1672.31152	1087.77783	257.08792	0.00000	0.00000	0.00000	1597.57581	714.35016	382.61249	1589.21960	670.44965	373.77280	1537.95483	721.54218	388.31879	1533.97986	672.60437	376.22501	1597.04468	503.79401	336.98834	1591.81555	510.99112	214.63600	1677.12024	275.81522	318.49435	1678.11462	233.68439	311.96613	1618.74854	272.06195	324.71790	1624.72229	224.20952	312.22968	1667.10425	90.72871	281.30331	1657.90344	104.45097	194.98341	1746.43298	56.49945	236.73627	1551.92456	37.21961	300.56070	1497.38025	57.04501	233.68187	0.00000	0.00000	0.00000	1663.85376	1081.57629	183.87508	1483.50244	1052.23767	96.93999	0.00000	0.00000	0.00000	0.00000	0.00000	0.00000	1392.95874	780.52014	46.95823	1381.43091	732.40839	44.13779	1348.15894	518.99731	59.14618	1366.47058	526.52740	185.68871	1448.70752	331.50223	48.96664	0.00000	0.00000	0.00000	0.00000	0.00000	0.00000	0.00000	0.00000	0.00000	1471.45508	114.56095	91.22890	1437.46411	128.29301	178.35260	1541.71216	83.90340	141.69423	1308.78381	48.41578	170.31546	1294.56616	74.12176	125.38261	1352.91248	45.65816	61.24675
997	3.98400	1667.46289	1087.23987	257.16092	0.00000	0.00000	0.00000	1594.83545	714.36066	382.60587	1586.94067	670.48810	373.79425	1535.28101	721.19507	388.30765	1531.65088	672.36243	376.23792	1595.87073	503.80353	337.02866	1590.63306	511.01126	214.70627	1676.71753	276.11902	318.46497	1677.65491	233.84770	311.92093	1618.22900	272.09570	324.75482	1624.32251	224.32195	312.29047	1667.05066	90.85973	281.16083	1657.81812	104.59087	194.93317	1746.32898	56.62080	236.65504	1551.91162	37.17311	300.55817	1497.38794	57.00794	233.76503	0.00000	0.00000	0.00000	1659.02551	1081.09094	183.90334	1478.65417	1051.76941	97.09596	1438.32422	762.01794	31.14797	0.00000	0.00000	0.00000	0.00000	0.00000	0.00000	1376.61255	732.08978	45.41372	1341.42969	519.01721	59.92833	1360.32446	526.13019	186.35500	1436.89795	328.87738	50.03606	1436.58472	284.74252	61.52191	0.00000	0.00000	0.00000	0.00000	0.00000	0.00000	1454.78723	112.05666	92.58988	1421.32703	126.52466	179.35394	1524.40112	80.41457	142.28198	1291.25891	49.36001	171.82159	1277.50989	75.59538	126.37031	1333.19141	44.76662	63.26814
